# xmcd
#
# Track frame offsets:
#	150
#	20920
#	44470
#	63640
#	87150
#	108267
#	129402
#	140462
#	170760
#	183607
#	203700
#	220255
#	238300
#	252210
#	269522
#	294242
#	311122
#
# Disc length: 4408 seconds
#
# Revision: 1
# Processed by: cddbd v1.5.1PL0 Copyright (c) Steve Scherf et al.
# Submitted via: audiograbber 1.83.01
#
DISCID=0c113611
DTITLE=Bijelo Dugme - Ima Neka Tajna Veza
DYEAR=1900
DGENRE=
TTITLE0=Hajdemo U Planine
TTITLE1=Da Te Bogdo Ne Volim
TTITLE2=Za Esmu
TTITLE3=Jer Kad Ostaris
TTITLE4=Padaju Zvijezde
TTITLE5=Nakon Svih Ovih Godina
TTITLE6=Cudesno Jutro U Krevetu Gospode Petrovic
TTITLE7=Sve Ce To , Mila Moja, Prekriti Ruzmarin, Snjegovi I Sas
TTITLE8=Napile Se Ulice
TTITLE9=Meni Se Ne Spava
TTITLE10=Ruzica Si Bila Sada Vise Nisi
TTITLE11=Lipe Cvatu (Sve Je Isto K'o I Lani )
TTITLE12=Ha , Ha , Ha
TTITLE13=Ðurdev Dan Je , A Ja Nisam S Onom Koju Volim
TTITLE14=Evo Zaklecu Se
TTITLE15=Pjesma Za Malu Pticu
TTITLE16=Ako Mozes , Zaboravi
EXTD=
EXTT0=
EXTT1=
EXTT2=
EXTT3=
EXTT4=
EXTT5=
EXTT6=
EXTT7=
EXTT8=
EXTT9=
EXTT10=
EXTT11=
EXTT12=
EXTT13=
EXTT14=
EXTT15=
EXTT16=
PLAYORDER=
